<?xml version="1.0" encoding="UTF-8" standalone="no"?><svg xmlns="http://www.w3.org/2000/svg" xmlns:xlink="http://www.w3.org/1999/xlink" contentScriptType="application/ecmascript" contentStyleType="text/css" height="334px" preserveAspectRatio="none" style="width:278px;height:334px;" version="1.1" viewBox="0 0 278 334" width="278px" zoomAndPan="magnify"><defs/><g><!--MD5=[c3668063ac2659be48990fdea3aec9d1]
class PW--><rect fill="#FDF4FF" height="134.9599" id="PW" style="stroke: #8B5CF6; stroke-width: 1.5;" width="225" x="24" y="8"/><rect fill="#EDE9FE" height="48.1358" style="stroke: #8B5CF6; stroke-width: 1.5;" width="225" x="24" y="8"/><ellipse cx="58.7" cy="32.0679" fill="#ADD1B2" rx="10" ry="10" style="stroke: #8B5CF6; stroke-width: 1.0;"/><path d="M61.0906,36.771 Q60.6063,37.021 60.075,37.146 Q59.5594,37.271 58.9813,37.271 Q56.9188,37.271 55.825,35.9117 Q54.7469,34.5523 54.7469,31.9742 Q54.7469,29.396 55.825,28.0367 Q56.9188,26.6773 58.9813,26.6773 Q59.5594,26.6773 60.0906,26.8023 Q60.6219,26.9273 61.0906,27.1617 L61.0906,29.4117 Q60.575,28.9273 60.075,28.7085 Q59.5906,28.4898 59.075,28.4898 Q57.9656,28.4898 57.4031,29.3648 Q56.8406,30.2398 56.8406,31.9742 Q56.8406,33.6929 57.4031,34.5835 Q57.9656,35.4585 59.075,35.4585 Q59.5906,35.4585 60.075,35.2398 Q60.575,35.0054 61.0906,34.5367 L61.0906,36.771 Z "/><text fill="#000000" font-family="Segoe UI" font-size="14" font-style="italic" lengthAdjust="spacingAndGlyphs" textLength="153" x="74.3" y="27.9659">«Java Standard Library»</text><text fill="#5B21B6" font-family="Segoe UI" font-size="14" lengthAdjust="spacingAndGlyphs" textLength="74" x="113.8" y="47.0339">PrintWriter</text><line style="stroke: #8B5CF6; stroke-width: 1.5;" x1="25" x2="248" y1="56.1358" y2="56.1358"/><line style="stroke: #8B5CF6; stroke-width: 1.5;" x1="25" x2="248" y1="64.1358" y2="64.1358"/><ellipse cx="35" cy="75.1358" fill="#84BE84" rx="3" ry="3" style="stroke: #038048; stroke-width: 1.0;"/><text fill="#374151" font-family="Segoe UI" font-size="13" lengthAdjust="spacingAndGlyphs" textLength="113" x="43" y="82.0328">void println(String)</text><ellipse cx="35" cy="92.8419" fill="#84BE84" rx="3" ry="3" style="stroke: #038048; stroke-width: 1.0;"/><text fill="#374151" font-family="Segoe UI" font-size="13" lengthAdjust="spacingAndGlyphs" textLength="200" x="43" y="99.7389">PrintWriter printf(String, Object...)</text><ellipse cx="35" cy="110.5479" fill="#84BE84" rx="3" ry="3" style="stroke: #038048; stroke-width: 1.0;"/><text fill="#374151" font-family="Segoe UI" font-size="13" lengthAdjust="spacingAndGlyphs" textLength="66" x="43" y="117.4449">void print()</text><ellipse cx="35" cy="128.2539" fill="#84BE84" rx="3" ry="3" style="stroke: #038048; stroke-width: 1.0;"/><text fill="#374151" font-family="Segoe UI" font-size="13" lengthAdjust="spacingAndGlyphs" textLength="66" x="43" y="135.1509">void flush()</text><!--MD5=[4635919166259e103bff26d254529e69]
class EPW--><rect fill="#FDF4FF" height="99.5479" id="EPW" style="stroke: #8B5CF6; stroke-width: 1.5;" width="261" x="6" y="224"/><rect fill="#EDE9FE" height="48.1358" style="stroke: #8B5CF6; stroke-width: 1.5;" width="261" x="6" y="224"/><ellipse cx="62" cy="248.0679" fill="#ADD1B2" rx="10" ry="10" style="stroke: #8B5CF6; stroke-width: 1.0;"/><path d="M64.3906,252.771 Q63.9063,253.021 63.375,253.146 Q62.8594,253.271 62.2813,253.271 Q60.2188,253.271 59.125,251.9117 Q58.0469,250.5523 58.0469,247.9742 Q58.0469,245.396 59.125,244.0367 Q60.2188,242.6773 62.2813,242.6773 Q62.8594,242.6773 63.3906,242.8023 Q63.9219,242.9273 64.3906,243.1617 L64.3906,245.4117 Q63.875,244.9273 63.375,244.7085 Q62.8906,244.4898 62.375,244.4898 Q61.2656,244.4898 60.7031,245.3648 Q60.1406,246.2398 60.1406,247.9742 Q60.1406,249.6929 60.7031,250.5835 Q61.2656,251.4585 62.375,251.4585 Q62.8906,251.4585 63.375,251.2398 Q63.875,251.0054 64.3906,250.5367 L64.3906,252.771 Z "/><text fill="#000000" font-family="Segoe UI" font-size="14" font-style="italic" lengthAdjust="spacingAndGlyphs" textLength="105" x="99" y="243.9659">«Our New Class»</text><text fill="#5B21B6" font-family="Segoe UI" font-size="14" lengthAdjust="spacingAndGlyphs" textLength="141" x="81" y="263.0339">EnhancedPrintWriter</text><line style="stroke: #8B5CF6; stroke-width: 1.5;" x1="7" x2="266" y1="272.1358" y2="272.1358"/><line style="stroke: #8B5CF6; stroke-width: 1.5;" x1="7" x2="266" y1="280.1358" y2="280.1358"/><ellipse cx="17" cy="291.1358" fill="#84BE84" rx="3" ry="3" style="stroke: #038048; stroke-width: 1.0;"/><text fill="#374151" font-family="Segoe UI" font-size="13" lengthAdjust="spacingAndGlyphs" textLength="188" x="25" y="298.0328">void print2DArray(int[][], String)</text><ellipse cx="17" cy="308.8419" fill="#84BE84" rx="3" ry="3" style="stroke: #038048; stroke-width: 1.0;"/><text fill="#374151" font-family="Segoe UI" font-size="13" lengthAdjust="spacingAndGlyphs" textLength="236" x="25" y="315.7389">void print2DArray(double[][], String, int)</text><!--MD5=[6aebd6d8e31ebcc7c3d8ee3a3816658a]
reverse link PW to EPW--><path d="M136.5,163.08 C136.5,183.93 136.5,205.49 136.5,223.94 " fill="none" id="PW&lt;-EPW" style="stroke: #7C3AED; stroke-width: 2.0;"/><polygon fill="none" points="129.5,163.03,136.5,143.03,143.5,163.03,129.5,163.03" style="stroke: #7C3AED; stroke-width: 2.0;"/><text fill="#000000" font-family="Segoe UI" font-size="14" lengthAdjust="spacingAndGlyphs" textLength="53" x="137.5" y="188.9659">extends</text><!--MD5=[af92c9d27a5841baa9df21a8e645a518]
@startuml diagram_enhanced_pw
skinparam backgroundColor transparent
skinparam shadowing false
skinparam defaultFontName "Segoe UI"
skinparam defaultFontSize 14
skinparam classBackgroundColor #fdf4ff
skinparam classBorderColor #8b5cf6
skinparam classFontColor #5b21b6
skinparam classAttributeFontColor #374151
skinparam classAttributeFontSize 13
skinparam arrowColor #7c3aed
skinparam arrowThickness 2
skinparam classHeaderBackgroundColor #ede9fe

class "PrintWriter" as PW <<Java Standard Library>> {
  + void println(String)
  + PrintWriter printf(String, Object...)
  + void print()
  + void flush()
}

class "EnhancedPrintWriter" as EPW <<Our New Class>> {
  + void print2DArray(int[][], String)
  + void print2DArray(double[][], String, int)
}

PW <|- - EPW : extends
@enduml

PlantUML version 1.2020.02(Sun Mar 01 13:22:07 AST 2020)
(GPL source distribution)
Java Runtime: OpenJDK Runtime Environment
JVM: OpenJDK 64-Bit Server VM
Java Version: 21.0.10+7-Ubuntu-124.04
Operating System: Linux
Default Encoding: UTF-8
Language: en
Country: US
--></g></svg>