<?xml version="1.0" encoding="UTF-8" standalone="no"?><svg xmlns="http://www.w3.org/2000/svg" xmlns:xlink="http://www.w3.org/1999/xlink" contentScriptType="application/ecmascript" contentStyleType="text/css" height="365px" preserveAspectRatio="none" style="width:480px;height:365px;" version="1.1" viewBox="0 0 480 365" width="480px" zoomAndPan="magnify"><defs/><g><!--MD5=[426e75666daf533f17226ff4c87e20fd]
class Shape--><rect fill="#FDF2F8" height="169.9421" id="Shape" style="stroke: #EC4899; stroke-width: 1.5;" width="124" x="175.5" y="8"/><rect fill="#FCE7F3" height="30" style="stroke: #EC4899; stroke-width: 1.5;" width="124" x="175.5" y="8"/><ellipse cx="214.7" cy="23" fill="#A9DCDF" rx="10" ry="10" style="stroke: #EC4899; stroke-width: 1.0;"/><path d="M214.4188,19.1406 L213.4656,23.3125 L215.3719,23.3125 L214.4188,19.1406 Z M213.1844,17.2969 L215.6531,17.2969 L218.4031,27.5 L216.3875,27.5 L215.7625,24.9844 L213.0594,24.9844 L212.45,27.5 L210.4188,27.5 L213.1844,17.2969 Z "/><text fill="#831843" font-family="Segoe UI" font-size="14" font-style="italic" lengthAdjust="spacingAndGlyphs" textLength="38" x="233.3" y="28.432">Shape</text><line style="stroke: #EC4899; stroke-width: 1.5;" x1="176.5" x2="298.5" y1="38" y2="38"/><text fill="#374151" font-family="Segoe UI" font-size="13" lengthAdjust="spacingAndGlyphs" textLength="77" x="181.5" y="55.897">#String color</text><text fill="#374151" font-family="Segoe UI" font-size="13" lengthAdjust="spacingAndGlyphs" textLength="88" x="181.5" y="73.603">#boolean filled</text><line style="stroke: #EC4899; stroke-width: 1.5;" x1="176.5" x2="298.5" y1="81.412" y2="81.412"/><text fill="#374151" font-family="Segoe UI" font-size="13" lengthAdjust="spacingAndGlyphs" textLength="106" x="181.5" y="99.309">+String getColor()</text><text fill="#374151" font-family="Segoe UI" font-size="13" lengthAdjust="spacingAndGlyphs" textLength="107" x="181.5" y="117.0151">+boolean isFilled()</text><text fill="#374151" font-family="Segoe UI" font-size="13" lengthAdjust="spacingAndGlyphs" textLength="103" x="181.5" y="134.7211">+String toString()</text><text fill="#374151" font-family="Segoe UI" font-size="13" font-style="italic" lengthAdjust="spacingAndGlyphs" textLength="83" x="181.5" y="152.4271">+double area()</text><text fill="#374151" font-family="Segoe UI" font-size="13" font-style="italic" lengthAdjust="spacingAndGlyphs" textLength="112" x="181.5" y="170.1331">+double perimeter()</text><!--MD5=[a7f9118cae7621dd25d25149752faef0]
class Circle--><rect fill="#FDF2F8" height="99.118" id="Circle" style="stroke: #EC4899; stroke-width: 1.5;" width="131" x="6" y="247"/><rect fill="#FCE7F3" height="30" style="stroke: #EC4899; stroke-width: 1.5;" width="131" x="6" y="247"/><ellipse cx="48.5" cy="262" fill="#ADD1B2" rx="10" ry="10" style="stroke: #EC4899; stroke-width: 1.0;"/><path d="M50.8906,266.7031 Q50.4063,266.9531 49.875,267.0781 Q49.3594,267.2031 48.7813,267.2031 Q46.7188,267.2031 45.625,265.8438 Q44.5469,264.4844 44.5469,261.9063 Q44.5469,259.3281 45.625,257.9688 Q46.7188,256.6094 48.7813,256.6094 Q49.3594,256.6094 49.8906,256.7344 Q50.4219,256.8594 50.8906,257.0938 L50.8906,259.3438 Q50.375,258.8594 49.875,258.6406 Q49.3906,258.4219 48.875,258.4219 Q47.7656,258.4219 47.2031,259.2969 Q46.6406,260.1719 46.6406,261.9063 Q46.6406,263.625 47.2031,264.5156 Q47.7656,265.3906 48.875,265.3906 Q49.3906,265.3906 49.875,265.1719 Q50.375,264.9375 50.8906,264.4688 L50.8906,266.7031 Z "/><text fill="#831843" font-family="Segoe UI" font-size="14" lengthAdjust="spacingAndGlyphs" textLength="38" x="67.5" y="267.432">Circle</text><line style="stroke: #EC4899; stroke-width: 1.5;" x1="7" x2="136" y1="277" y2="277"/><text fill="#374151" font-family="Segoe UI" font-size="13" lengthAdjust="spacingAndGlyphs" textLength="86" x="12" y="294.897">-double radius</text><line style="stroke: #EC4899; stroke-width: 1.5;" x1="7" x2="136" y1="302.706" y2="302.706"/><text fill="#374151" font-family="Segoe UI" font-size="13" lengthAdjust="spacingAndGlyphs" textLength="86" x="12" y="320.603">+double area()</text><text fill="#374151" font-family="Segoe UI" font-size="13" lengthAdjust="spacingAndGlyphs" textLength="119" x="12" y="338.309">+double perimeter()</text><!--MD5=[b5313cd49da22b0744b541f414f8445e]
class Rectangle--><rect fill="#FDF2F8" height="116.8241" id="Rectangle" style="stroke: #EC4899; stroke-width: 1.5;" width="131" x="172" y="238"/><rect fill="#FCE7F3" height="30" style="stroke: #EC4899; stroke-width: 1.5;" width="131" x="172" y="238"/><ellipse cx="201.3" cy="253" fill="#ADD1B2" rx="10" ry="10" style="stroke: #EC4899; stroke-width: 1.0;"/><path d="M203.6906,257.7031 Q203.2063,257.9531 202.675,258.0781 Q202.1594,258.2031 201.5813,258.2031 Q199.5188,258.2031 198.425,256.8438 Q197.3469,255.4844 197.3469,252.9063 Q197.3469,250.3281 198.425,248.9688 Q199.5188,247.6094 201.5813,247.6094 Q202.1594,247.6094 202.6906,247.7344 Q203.2219,247.8594 203.6906,248.0938 L203.6906,250.3438 Q203.175,249.8594 202.675,249.6406 Q202.1906,249.4219 201.675,249.4219 Q200.5656,249.4219 200.0031,250.2969 Q199.4406,251.1719 199.4406,252.9063 Q199.4406,254.625 200.0031,255.5156 Q200.5656,256.3906 201.675,256.3906 Q202.1906,256.3906 202.675,256.1719 Q203.175,255.9375 203.6906,255.4688 L203.6906,257.7031 Z "/><text fill="#831843" font-family="Segoe UI" font-size="14" lengthAdjust="spacingAndGlyphs" textLength="67" x="217.7" y="258.432">Rectangle</text><line style="stroke: #EC4899; stroke-width: 1.5;" x1="173" x2="302" y1="268" y2="268"/><text fill="#374151" font-family="Segoe UI" font-size="13" lengthAdjust="spacingAndGlyphs" textLength="83" x="178" y="285.897">-double width</text><text fill="#374151" font-family="Segoe UI" font-size="13" lengthAdjust="spacingAndGlyphs" textLength="88" x="178" y="303.603">-double height</text><line style="stroke: #EC4899; stroke-width: 1.5;" x1="173" x2="302" y1="311.412" y2="311.412"/><text fill="#374151" font-family="Segoe UI" font-size="13" lengthAdjust="spacingAndGlyphs" textLength="86" x="178" y="329.309">+double area()</text><text fill="#374151" font-family="Segoe UI" font-size="13" lengthAdjust="spacingAndGlyphs" textLength="119" x="178" y="347.0151">+double perimeter()</text><!--MD5=[40b067e448d061f8c1f714bff454de58]
class Triangle--><rect fill="#FDF2F8" height="99.118" id="Triangle" style="stroke: #EC4899; stroke-width: 1.5;" width="131" x="338" y="247"/><rect fill="#FCE7F3" height="30" style="stroke: #EC4899; stroke-width: 1.5;" width="131" x="338" y="247"/><ellipse cx="372.25" cy="262" fill="#ADD1B2" rx="10" ry="10" style="stroke: #EC4899; stroke-width: 1.0;"/><path d="M374.6406,266.7031 Q374.1563,266.9531 373.625,267.0781 Q373.1094,267.2031 372.5313,267.2031 Q370.4688,267.2031 369.375,265.8438 Q368.2969,264.4844 368.2969,261.9063 Q368.2969,259.3281 369.375,257.9688 Q370.4688,256.6094 372.5313,256.6094 Q373.1094,256.6094 373.6406,256.7344 Q374.1719,256.8594 374.6406,257.0938 L374.6406,259.3438 Q374.125,258.8594 373.625,258.6406 Q373.1406,258.4219 372.625,258.4219 Q371.5156,258.4219 370.9531,259.2969 Q370.3906,260.1719 370.3906,261.9063 Q370.3906,263.625 370.9531,264.5156 Q371.5156,265.3906 372.625,265.3906 Q373.1406,265.3906 373.625,265.1719 Q374.125,264.9375 374.6406,264.4688 L374.6406,266.7031 Z "/><text fill="#831843" font-family="Segoe UI" font-size="14" lengthAdjust="spacingAndGlyphs" textLength="56" x="389.75" y="267.432">Triangle</text><line style="stroke: #EC4899; stroke-width: 1.5;" x1="339" x2="468" y1="277" y2="277"/><text fill="#374151" font-family="Segoe UI" font-size="13" lengthAdjust="spacingAndGlyphs" textLength="82" x="344" y="294.897">-double a, b, c</text><line style="stroke: #EC4899; stroke-width: 1.5;" x1="339" x2="468" y1="302.706" y2="302.706"/><text fill="#374151" font-family="Segoe UI" font-size="13" lengthAdjust="spacingAndGlyphs" textLength="86" x="344" y="320.603">+double area()</text><text fill="#374151" font-family="Segoe UI" font-size="13" lengthAdjust="spacingAndGlyphs" textLength="119" x="344" y="338.309">+double perimeter()</text><!--MD5=[d637a7d0c5b779627461b5a6979d5756]
reverse link Shape to Circle--><path d="M162.5,185.04 C144.95,206.34 126.93,228.22 111.59,246.83 " fill="none" id="Shape&lt;-Circle" style="stroke: #BE185D; stroke-width: 2.0;"/><polygon fill="none" points="157.33,180.3,175.45,169.32,168.14,189.21,157.33,180.3" style="stroke: #BE185D; stroke-width: 2.0;"/><!--MD5=[793668fe740f4b06a80dd095381d024c]
reverse link Shape to Rectangle--><path d="M237.5,198.68 C237.5,212.15 237.5,225.53 237.5,237.85 " fill="none" id="Shape&lt;-Rectangle" style="stroke: #BE185D; stroke-width: 2.0;"/><polygon fill="none" points="230.5,198.29,237.5,178.29,244.5,198.29,230.5,198.29" style="stroke: #BE185D; stroke-width: 2.0;"/><!--MD5=[c0c2beb63eebe7551e7e17172f8efeb7]
reverse link Shape to Triangle--><path d="M312.5,185.04 C330.05,206.34 348.07,228.22 363.41,246.83 " fill="none" id="Shape&lt;-Triangle" style="stroke: #BE185D; stroke-width: 2.0;"/><polygon fill="none" points="306.86,189.21,299.55,169.32,317.67,180.3,306.86,189.21" style="stroke: #BE185D; stroke-width: 2.0;"/><!--MD5=[21359abaa6fc67eb7d9e1b5324b42f75]
@startuml diagram_shapes
skinparam backgroundColor transparent
skinparam shadowing false
skinparam defaultFontName "Segoe UI"
skinparam defaultFontSize 14
skinparam classBackgroundColor #fdf2f8
skinparam classBorderColor #ec4899
skinparam classFontColor #831843
skinparam classAttributeFontColor #374151
skinparam classAttributeFontSize 13
skinparam arrowColor #be185d
skinparam arrowThickness 2
skinparam classHeaderBackgroundColor #fce7f3
skinparam abstractClassBackgroundColor #fff0f9
skinparam abstractClassBorderColor #be185d
skinparam classAttributeIconSize 0

abstract class Shape {
  # String color
  # boolean filled
  + String getColor()
  + boolean isFilled()
  + String toString()
  {abstract} + double area()
  {abstract} + double perimeter()
}

class Circle {
  - double radius
  + double area()
  + double perimeter()
}

class Rectangle {
  - double width
  - double height
  + double area()
  + double perimeter()
}

class Triangle {
  - double a, b, c
  + double area()
  + double perimeter()
}

Shape <|- - Circle
Shape <|- - Rectangle
Shape <|- - Triangle
@enduml

PlantUML version 1.2020.02(Sun Mar 01 13:22:07 AST 2020)
(GPL source distribution)
Java Runtime: OpenJDK Runtime Environment
JVM: OpenJDK 64-Bit Server VM
Java Version: 21.0.10+7-Ubuntu-124.04
Operating System: Linux
Default Encoding: UTF-8
Language: en
Country: US
--></g></svg>