<?xml version="1.0" encoding="UTF-8" standalone="no"?><svg xmlns="http://www.w3.org/2000/svg" xmlns:xlink="http://www.w3.org/1999/xlink" contentScriptType="application/ecmascript" contentStyleType="text/css" height="262px" preserveAspectRatio="none" style="width:300px;height:262px;" version="1.1" viewBox="0 0 300 262" width="300px" zoomAndPan="magnify"><defs/><g><!--MD5=[cf9bc73d4b319b8f5d50999aecc13d13]
class Parent--><rect fill="#FDF2F8" height="99.118" id="Parent" style="stroke: #EC4899; stroke-width: 1.5;" width="140" x="77" y="8"/><rect fill="#FCE7F3" height="30" style="stroke: #EC4899; stroke-width: 1.5;" width="140" x="77" y="8"/><ellipse cx="91" cy="23" fill="#ADD1B2" rx="10" ry="10" style="stroke: #EC4899; stroke-width: 1.0;"/><path d="M93.3906,27.7031 Q92.9063,27.9531 92.375,28.0781 Q91.8594,28.2031 91.2813,28.2031 Q89.2188,28.2031 88.125,26.8438 Q87.0469,25.4844 87.0469,22.9063 Q87.0469,20.3281 88.125,18.9688 Q89.2188,17.6094 91.2813,17.6094 Q91.8594,17.6094 92.3906,17.7344 Q92.9219,17.8594 93.3906,18.0938 L93.3906,20.3438 Q92.875,19.8594 92.375,19.6406 Q91.8906,19.4219 91.375,19.4219 Q90.2656,19.4219 89.7031,20.2969 Q89.1406,21.1719 89.1406,22.9063 Q89.1406,24.625 89.7031,25.5156 Q90.2656,26.3906 91.375,26.3906 Q91.8906,26.3906 92.375,26.1719 Q92.875,25.9375 93.3906,25.4688 L93.3906,27.7031 Z "/><text fill="#831843" font-family="Segoe UI" font-size="14" lengthAdjust="spacingAndGlyphs" textLength="110" x="104" y="28.432">Father &amp; Mother</text><line style="stroke: #EC4899; stroke-width: 1.5;" x1="78" x2="216" y1="38" y2="38"/><text fill="#374151" font-family="Segoe UI" font-size="13" lengthAdjust="spacingAndGlyphs" textLength="41" x="83" y="55.897">talents</text><text fill="#374151" font-family="Segoe UI" font-size="13" lengthAdjust="spacingAndGlyphs" textLength="70" x="83" y="73.603">appearance</text><text fill="#374151" font-family="Segoe UI" font-size="13" lengthAdjust="spacingAndGlyphs" textLength="67" x="83" y="91.309">personality</text><line style="stroke: #EC4899; stroke-width: 1.5;" x1="78" x2="216" y1="99.118" y2="99.118"/><!--MD5=[e4cfc263935e8a1ed98a6ff3a1cdabdd]
class Son--><rect fill="#FDF2F8" height="63.706" id="Son" style="stroke: #EC4899; stroke-width: 1.5;" width="124" x="6" y="188"/><rect fill="#FCE7F3" height="30" style="stroke: #EC4899; stroke-width: 1.5;" width="124" x="6" y="188"/><ellipse cx="51.5" cy="203" fill="#ADD1B2" rx="10" ry="10" style="stroke: #EC4899; stroke-width: 1.0;"/><path d="M53.8906,207.7031 Q53.4063,207.9531 52.875,208.0781 Q52.3594,208.2031 51.7813,208.2031 Q49.7188,208.2031 48.625,206.8438 Q47.5469,205.4844 47.5469,202.9063 Q47.5469,200.3281 48.625,198.9688 Q49.7188,197.6094 51.7813,197.6094 Q52.3594,197.6094 52.8906,197.7344 Q53.4219,197.8594 53.8906,198.0938 L53.8906,200.3438 Q53.375,199.8594 52.875,199.6406 Q52.3906,199.4219 51.875,199.4219 Q50.7656,199.4219 50.2031,200.2969 Q49.6406,201.1719 49.6406,202.9063 Q49.6406,204.625 50.2031,205.5156 Q50.7656,206.3906 51.875,206.3906 Q52.3906,206.3906 52.875,206.1719 Q53.375,205.9375 53.8906,205.4688 L53.8906,207.7031 Z "/><text fill="#831843" font-family="Segoe UI" font-size="14" lengthAdjust="spacingAndGlyphs" textLength="25" x="70.5" y="208.432">Son</text><line style="stroke: #EC4899; stroke-width: 1.5;" x1="7" x2="129" y1="218" y2="218"/><text fill="#374151" font-family="Segoe UI" font-size="13" lengthAdjust="spacingAndGlyphs" textLength="112" x="12" y="235.897">+own unique traits</text><line style="stroke: #EC4899; stroke-width: 1.5;" x1="7" x2="129" y1="243.706" y2="243.706"/><!--MD5=[6d5a8d9fff403e474150262fddf52088]
class Daughter--><rect fill="#FDF2F8" height="63.706" id="Daughter" style="stroke: #EC4899; stroke-width: 1.5;" width="124" x="165" y="188"/><rect fill="#FCE7F3" height="30" style="stroke: #EC4899; stroke-width: 1.5;" width="124" x="165" y="188"/><ellipse cx="192.5" cy="203" fill="#ADD1B2" rx="10" ry="10" style="stroke: #EC4899; stroke-width: 1.0;"/><path d="M194.8906,207.7031 Q194.4063,207.9531 193.875,208.0781 Q193.3594,208.2031 192.7813,208.2031 Q190.7188,208.2031 189.625,206.8438 Q188.5469,205.4844 188.5469,202.9063 Q188.5469,200.3281 189.625,198.9688 Q190.7188,197.6094 192.7813,197.6094 Q193.3594,197.6094 193.8906,197.7344 Q194.4219,197.8594 194.8906,198.0938 L194.8906,200.3438 Q194.375,199.8594 193.875,199.6406 Q193.3906,199.4219 192.875,199.4219 Q191.7656,199.4219 191.2031,200.2969 Q190.6406,201.1719 190.6406,202.9063 Q190.6406,204.625 191.2031,205.5156 Q191.7656,206.3906 192.875,206.3906 Q193.3906,206.3906 193.875,206.1719 Q194.375,205.9375 194.8906,205.4688 L194.8906,207.7031 Z "/><text fill="#831843" font-family="Segoe UI" font-size="14" lengthAdjust="spacingAndGlyphs" textLength="64" x="208.5" y="208.432">Daughter</text><line style="stroke: #EC4899; stroke-width: 1.5;" x1="166" x2="288" y1="218" y2="218"/><text fill="#374151" font-family="Segoe UI" font-size="13" lengthAdjust="spacingAndGlyphs" textLength="112" x="171" y="235.897">+own unique traits</text><line style="stroke: #EC4899; stroke-width: 1.5;" x1="166" x2="288" y1="243.706" y2="243.706"/><!--MD5=[fcd85e2cdab672f9ce4f120a496d0e06]
reverse link Parent to Son--><path d="M114.15,125.24 C103.48,146.92 92.14,169.96 83.37,187.78 " fill="none" id="Parent&lt;-Son" style="stroke: #BE185D; stroke-width: 2.0;"/><polygon fill="none" points="107.97,121.94,123.08,107.09,120.53,128.13,107.97,121.94" style="stroke: #BE185D; stroke-width: 2.0;"/><text fill="#000000" font-family="Segoe UI" font-size="14" lengthAdjust="spacingAndGlyphs" textLength="52" x="109" y="152.9659">inherits</text><!--MD5=[463bc8a0d46f388aafc77b1e4db7ddfa]
reverse link Parent to Daughter--><path d="M180.26,125.24 C191.07,146.92 202.56,169.96 211.44,187.78 " fill="none" id="Parent&lt;-Daughter" style="stroke: #BE185D; stroke-width: 2.0;"/><polygon fill="none" points="173.88,128.11,171.22,107.09,186.41,121.87,173.88,128.11" style="stroke: #BE185D; stroke-width: 2.0;"/><text fill="#000000" font-family="Segoe UI" font-size="14" lengthAdjust="spacingAndGlyphs" textLength="52" x="197" y="152.9659">inherits</text><!--MD5=[a47506509dd05d2bb466bcef5cafc117]
@startuml diagram_family
skinparam backgroundColor transparent
skinparam shadowing false
skinparam defaultFontName "Segoe UI"
skinparam defaultFontSize 14
skinparam classBackgroundColor #fdf2f8
skinparam classBorderColor #ec4899
skinparam classFontColor #831843
skinparam classAttributeFontColor #374151
skinparam classAttributeFontSize 13
skinparam arrowColor #be185d
skinparam arrowThickness 2
skinparam classHeaderBackgroundColor #fce7f3
skinparam classAttributeIconSize 0

class "Father & Mother" as Parent {
  talents
  appearance
  personality
}

class "Son" {
  + own unique traits
}

class "Daughter" {
  + own unique traits
}

Parent <|- - Son  : inherits
Parent <|- - Daughter : inherits
@enduml

PlantUML version 1.2020.02(Sun Mar 01 13:22:07 AST 2020)
(GPL source distribution)
Java Runtime: OpenJDK Runtime Environment
JVM: OpenJDK 64-Bit Server VM
Java Version: 21.0.10+7-Ubuntu-124.04
Operating System: Linux
Default Encoding: UTF-8
Language: en
Country: US
--></g></svg>