<?xml version="1.0" encoding="UTF-8" standalone="no"?><svg xmlns="http://www.w3.org/2000/svg" xmlns:xlink="http://www.w3.org/1999/xlink" contentScriptType="application/ecmascript" contentStyleType="text/css" height="330px" preserveAspectRatio="none" style="width:585px;height:330px;" version="1.1" viewBox="0 0 585 330" width="585px" zoomAndPan="magnify"><defs/><g><!--MD5=[426e75666daf533f17226ff4c87e20fd]
class Shape--><rect fill="#FDF2F8" height="134.5301" id="Shape" style="stroke: #EC4899; stroke-width: 1.5;" width="121" x="177" y="8"/><rect fill="#FCE7F3" height="30" style="stroke: #EC4899; stroke-width: 1.5;" width="121" x="177" y="8"/><ellipse cx="213.05" cy="23" fill="#ADD1B2" rx="10" ry="10" style="stroke: #EC4899; stroke-width: 1.0;"/><path d="M215.4406,27.7031 Q214.9563,27.9531 214.425,28.0781 Q213.9094,28.2031 213.3313,28.2031 Q211.2688,28.2031 210.175,26.8438 Q209.0969,25.4844 209.0969,22.9063 Q209.0969,20.3281 210.175,18.9688 Q211.2688,17.6094 213.3313,17.6094 Q213.9094,17.6094 214.4406,17.7344 Q214.9719,17.8594 215.4406,18.0938 L215.4406,20.3438 Q214.925,19.8594 214.425,19.6406 Q213.9406,19.4219 213.425,19.4219 Q212.3156,19.4219 211.7531,20.2969 Q211.1906,21.1719 211.1906,22.9063 Q211.1906,24.625 211.7531,25.5156 Q212.3156,26.3906 213.425,26.3906 Q213.9406,26.3906 214.425,26.1719 Q214.925,25.9375 215.4406,25.4688 L215.4406,27.7031 Z "/><text fill="#831843" font-family="Segoe UI" font-size="14" lengthAdjust="spacingAndGlyphs" textLength="42" x="230.95" y="28.432">Shape</text><line style="stroke: #EC4899; stroke-width: 1.5;" x1="178" x2="297" y1="38" y2="38"/><text fill="#374151" font-family="Segoe UI" font-size="13" lengthAdjust="spacingAndGlyphs" textLength="77" x="183" y="55.897">#String color</text><text fill="#374151" font-family="Segoe UI" font-size="13" lengthAdjust="spacingAndGlyphs" textLength="88" x="183" y="73.603">#boolean filled</text><line style="stroke: #EC4899; stroke-width: 1.0;" x1="178" x2="297" y1="81.412" y2="81.412"/><text fill="#374151" font-family="Segoe UI" font-size="13" lengthAdjust="spacingAndGlyphs" textLength="109" x="183" y="99.309">+String  getColor()</text><text fill="#374151" font-family="Segoe UI" font-size="13" lengthAdjust="spacingAndGlyphs" textLength="107" x="183" y="117.0151">+boolean isFilled()</text><text fill="#374151" font-family="Segoe UI" font-size="13" lengthAdjust="spacingAndGlyphs" textLength="106" x="183" y="134.7211">+String  toString()</text><!--MD5=[a7f9118cae7621dd25d25149752faef0]
class Circle--><rect fill="#FDF2F8" height="99.118" id="Circle" style="stroke: #EC4899; stroke-width: 1.5;" width="131" x="6" y="212"/><rect fill="#FCE7F3" height="30" style="stroke: #EC4899; stroke-width: 1.5;" width="131" x="6" y="212"/><ellipse cx="48.5" cy="227" fill="#ADD1B2" rx="10" ry="10" style="stroke: #EC4899; stroke-width: 1.0;"/><path d="M50.8906,231.7031 Q50.4063,231.9531 49.875,232.0781 Q49.3594,232.2031 48.7813,232.2031 Q46.7188,232.2031 45.625,230.8438 Q44.5469,229.4844 44.5469,226.9063 Q44.5469,224.3281 45.625,222.9688 Q46.7188,221.6094 48.7813,221.6094 Q49.3594,221.6094 49.8906,221.7344 Q50.4219,221.8594 50.8906,222.0938 L50.8906,224.3438 Q50.375,223.8594 49.875,223.6406 Q49.3906,223.4219 48.875,223.4219 Q47.7656,223.4219 47.2031,224.2969 Q46.6406,225.1719 46.6406,226.9063 Q46.6406,228.625 47.2031,229.5156 Q47.7656,230.3906 48.875,230.3906 Q49.3906,230.3906 49.875,230.1719 Q50.375,229.9375 50.8906,229.4688 L50.8906,231.7031 Z "/><text fill="#831843" font-family="Segoe UI" font-size="14" lengthAdjust="spacingAndGlyphs" textLength="38" x="67.5" y="232.432">Circle</text><line style="stroke: #EC4899; stroke-width: 1.5;" x1="7" x2="136" y1="242" y2="242"/><text fill="#374151" font-family="Segoe UI" font-size="13" lengthAdjust="spacingAndGlyphs" textLength="86" x="12" y="259.897">-double radius</text><line style="stroke: #EC4899; stroke-width: 1.0;" x1="7" x2="136" y1="267.706" y2="267.706"/><text fill="#374151" font-family="Segoe UI" font-size="13" lengthAdjust="spacingAndGlyphs" textLength="86" x="12" y="285.603">+double area()</text><text fill="#374151" font-family="Segoe UI" font-size="13" lengthAdjust="spacingAndGlyphs" textLength="119" x="12" y="303.309">+double perimeter()</text><!--MD5=[b5313cd49da22b0744b541f414f8445e]
class Rectangle--><rect fill="#FDF2F8" height="116.8241" id="Rectangle" style="stroke: #EC4899; stroke-width: 1.5;" width="131" x="172" y="203"/><rect fill="#FCE7F3" height="30" style="stroke: #EC4899; stroke-width: 1.5;" width="131" x="172" y="203"/><ellipse cx="201.3" cy="218" fill="#ADD1B2" rx="10" ry="10" style="stroke: #EC4899; stroke-width: 1.0;"/><path d="M203.6906,222.7031 Q203.2063,222.9531 202.675,223.0781 Q202.1594,223.2031 201.5813,223.2031 Q199.5188,223.2031 198.425,221.8438 Q197.3469,220.4844 197.3469,217.9063 Q197.3469,215.3281 198.425,213.9688 Q199.5188,212.6094 201.5813,212.6094 Q202.1594,212.6094 202.6906,212.7344 Q203.2219,212.8594 203.6906,213.0938 L203.6906,215.3438 Q203.175,214.8594 202.675,214.6406 Q202.1906,214.4219 201.675,214.4219 Q200.5656,214.4219 200.0031,215.2969 Q199.4406,216.1719 199.4406,217.9063 Q199.4406,219.625 200.0031,220.5156 Q200.5656,221.3906 201.675,221.3906 Q202.1906,221.3906 202.675,221.1719 Q203.175,220.9375 203.6906,220.4688 L203.6906,222.7031 Z "/><text fill="#831843" font-family="Segoe UI" font-size="14" lengthAdjust="spacingAndGlyphs" textLength="67" x="217.7" y="223.432">Rectangle</text><line style="stroke: #EC4899; stroke-width: 1.5;" x1="173" x2="302" y1="233" y2="233"/><text fill="#374151" font-family="Segoe UI" font-size="13" lengthAdjust="spacingAndGlyphs" textLength="83" x="178" y="250.897">-double width</text><text fill="#374151" font-family="Segoe UI" font-size="13" lengthAdjust="spacingAndGlyphs" textLength="88" x="178" y="268.603">-double height</text><line style="stroke: #EC4899; stroke-width: 1.0;" x1="173" x2="302" y1="276.412" y2="276.412"/><text fill="#374151" font-family="Segoe UI" font-size="13" lengthAdjust="spacingAndGlyphs" textLength="86" x="178" y="294.309">+double area()</text><text fill="#374151" font-family="Segoe UI" font-size="13" lengthAdjust="spacingAndGlyphs" textLength="119" x="178" y="312.0151">+double perimeter()</text><path d="M338,228 L338,295.2038 A0,0 0 0 0 338,295.2038 L573,295.2038 A0,0 0 0 0 573,295.2038 L573,238 L563,228 L420.7,228 L298.23,127.75 L412.7,228 L338,228 A0,0 0 0 0 338,228 " fill="#FBFB77" style="stroke: #A80036; stroke-width: 1.0;"/><path d="M563,228 L563,238 L573,238 L563,228 " fill="#FBFB77" style="stroke: #A80036; stroke-width: 1.0;"/><text fill="#000000" font-family="Segoe UI" font-size="14" lengthAdjust="spacingAndGlyphs" textLength="194" x="344" y="247.9659">Common fields and methods</text><text fill="#000000" font-family="Segoe UI" font-size="14" lengthAdjust="spacingAndGlyphs" textLength="214" x="344" y="267.0339">defined ONCE here — inherited</text><text fill="#000000" font-family="Segoe UI" font-size="14" lengthAdjust="spacingAndGlyphs" textLength="163" x="344" y="286.1018">by Circle and Rectangle.</text><!--MD5=[d637a7d0c5b779627461b5a6979d5756]
reverse link Shape to Circle--><path d="M163.89,158.09 C147.32,176.46 130.23,195.4 115.33,211.92 " fill="none" id="Shape&lt;-Circle" style="stroke: #7C3AED; stroke-width: 2.5;"/><polygon fill="none" points="158.74,153.35,177.34,143.19,169.14,162.73,158.74,153.35" style="stroke: #7C3AED; stroke-width: 2.5;"/><!--MD5=[793668fe740f4b06a80dd095381d024c]
reverse link Shape to Rectangle--><path d="M237.5,163.29 C237.5,176.71 237.5,190.28 237.5,202.85 " fill="none" id="Shape&lt;-Rectangle" style="stroke: #7C3AED; stroke-width: 2.5;"/><polygon fill="none" points="230.5,163.19,237.5,143.19,244.5,163.19,230.5,163.19" style="stroke: #7C3AED; stroke-width: 2.5;"/><!--MD5=[f9a876742659a51c21125a403818e5a0]
@startuml diagram_shape_hierarchy
skinparam backgroundColor transparent
skinparam shadowing false
skinparam defaultFontName "Segoe UI"
skinparam defaultFontSize 14
skinparam classBackgroundColor #fdf2f8
skinparam classBorderColor #ec4899
skinparam classFontColor #831843
skinparam classAttributeFontColor #374151
skinparam classAttributeFontSize 13
skinparam arrowColor #7c3aed
skinparam arrowThickness 2.5
skinparam classHeaderBackgroundColor #fce7f3
skinparam classAttributeIconSize 0

class Shape {
  # String color
  # boolean filled
  - -
  + String  getColor()
  + boolean isFilled()
  + String  toString()
}

class Circle {
  - double radius
  - -
  + double area()
  + double perimeter()
}

class Rectangle {
  - double width
  - double height
  - -
  + double area()
  + double perimeter()
}

Shape <|- - Circle
Shape <|- - Rectangle

note bottom of Shape
  Common fields and methods
  defined ONCE here — inherited
  by Circle and Rectangle.
end note
@enduml

PlantUML version 1.2020.02(Sun Mar 01 13:22:07 AST 2020)
(GPL source distribution)
Java Runtime: OpenJDK Runtime Environment
JVM: OpenJDK 64-Bit Server VM
Java Version: 21.0.10+7-Ubuntu-124.04
Operating System: Linux
Default Encoding: UTF-8
Language: en
Country: US
--></g></svg>