<?xml version="1.0" encoding="UTF-8" standalone="no"?><svg xmlns="http://www.w3.org/2000/svg" xmlns:xlink="http://www.w3.org/1999/xlink" contentScriptType="application/ecmascript" contentStyleType="text/css" height="262px" preserveAspectRatio="none" style="width:141px;height:262px;" version="1.1" viewBox="0 0 141 262" width="141px" zoomAndPan="magnify"><defs/><g><!--MD5=[7fd4401f5c5cb0e3d029c879cad30c04]
class Animal--><rect fill="#FDF2F8" height="81.412" id="Animal" style="stroke: #EC4899; stroke-width: 1.5;" width="92" x="22" y="8"/><rect fill="#FCE7F3" height="30" style="stroke: #EC4899; stroke-width: 1.5;" width="92" x="22" y="8"/><ellipse cx="42.75" cy="23" fill="#ADD1B2" rx="10" ry="10" style="stroke: #EC4899; stroke-width: 1.0;"/><path d="M45.1406,27.7031 Q44.6563,27.9531 44.125,28.0781 Q43.6094,28.2031 43.0313,28.2031 Q40.9688,28.2031 39.875,26.8438 Q38.7969,25.4844 38.7969,22.9063 Q38.7969,20.3281 39.875,18.9688 Q40.9688,17.6094 43.0313,17.6094 Q43.6094,17.6094 44.1406,17.7344 Q44.6719,17.8594 45.1406,18.0938 L45.1406,20.3438 Q44.625,19.8594 44.125,19.6406 Q43.6406,19.4219 43.125,19.4219 Q42.0156,19.4219 41.4531,20.2969 Q40.8906,21.1719 40.8906,22.9063 Q40.8906,24.625 41.4531,25.5156 Q42.0156,26.3906 43.125,26.3906 Q43.6406,26.3906 44.125,26.1719 Q44.625,25.9375 45.1406,25.4688 L45.1406,27.7031 Z "/><text fill="#831843" font-family="Segoe UI" font-size="14" lengthAdjust="spacingAndGlyphs" textLength="47" x="57.25" y="28.432">Animal</text><line style="stroke: #EC4899; stroke-width: 1.5;" x1="23" x2="113" y1="38" y2="38"/><text fill="#374151" font-family="Segoe UI" font-size="13" lengthAdjust="spacingAndGlyphs" textLength="80" x="28" y="55.897">+String name</text><line style="stroke: #EC4899; stroke-width: 1.5;" x1="23" x2="113" y1="63.706" y2="63.706"/><text fill="#374151" font-family="Segoe UI" font-size="13" lengthAdjust="spacingAndGlyphs" textLength="63" x="28" y="81.603">+void eat()</text><!--MD5=[454ed48f055567edc734f170f61b4daf]
class Dog--><rect fill="#FDF2F8" height="81.412" id="Dog" style="stroke: #EC4899; stroke-width: 1.5;" width="124" x="6" y="170"/><rect fill="#FCE7F3" height="30" style="stroke: #EC4899; stroke-width: 1.5;" width="124" x="6" y="170"/><ellipse cx="50.5" cy="185" fill="#ADD1B2" rx="10" ry="10" style="stroke: #EC4899; stroke-width: 1.0;"/><path d="M52.8906,189.7031 Q52.4063,189.9531 51.875,190.0781 Q51.3594,190.2031 50.7813,190.2031 Q48.7188,190.2031 47.625,188.8438 Q46.5469,187.4844 46.5469,184.9063 Q46.5469,182.3281 47.625,180.9688 Q48.7188,179.6094 50.7813,179.6094 Q51.3594,179.6094 51.8906,179.7344 Q52.4219,179.8594 52.8906,180.0938 L52.8906,182.3438 Q52.375,181.8594 51.875,181.6406 Q51.3906,181.4219 50.875,181.4219 Q49.7656,181.4219 49.2031,182.2969 Q48.6406,183.1719 48.6406,184.9063 Q48.6406,186.625 49.2031,187.5156 Q49.7656,188.3906 50.875,188.3906 Q51.3906,188.3906 51.875,188.1719 Q52.375,187.9375 52.8906,187.4688 L52.8906,189.7031 Z "/><text fill="#831843" font-family="Segoe UI" font-size="14" lengthAdjust="spacingAndGlyphs" textLength="27" x="69.5" y="190.432">Dog</text><line style="stroke: #EC4899; stroke-width: 1.5;" x1="7" x2="129" y1="200" y2="200"/><text fill="#374151" font-family="Segoe UI" font-size="13" lengthAdjust="spacingAndGlyphs" textLength="71" x="12" y="217.897">+void bark()</text><line style="stroke: #EC4899; stroke-width: 1.0;" x1="7" x2="129" y1="225.706" y2="225.706"/><text fill="#374151" font-family="Segoe UI" font-size="13" font-style="italic" lengthAdjust="spacingAndGlyphs" textLength="112" x="12" y="243.603">inherits: name, eat()</text><!--MD5=[5037e5108ae860e34ac250b7d2b84c09]
reverse link Animal to Dog--><path d="M68,109.23 C68,129.47 68,151.57 68,169.85 " fill="none" id="Animal&lt;-Dog" style="stroke: #BE185D; stroke-width: 2.0;"/><polygon fill="none" points="61,109.05,68,89.05,75,109.05,61,109.05" style="stroke: #BE185D; stroke-width: 2.0;"/><text fill="#000000" font-family="Segoe UI" font-size="14" lengthAdjust="spacingAndGlyphs" textLength="53" x="69" y="134.9659">extends</text><!--MD5=[1ce4c0eef0a675eda182ce2e2f0656c1]
@startuml diagram_animal
skinparam backgroundColor transparent
skinparam shadowing false
skinparam defaultFontName "Segoe UI"
skinparam defaultFontSize 14
skinparam classBackgroundColor #fdf2f8
skinparam classBorderColor #ec4899
skinparam classFontColor #831843
skinparam classAttributeFontColor #374151
skinparam classAttributeFontSize 13
skinparam arrowColor #be185d
skinparam arrowThickness 2
skinparam classHeaderBackgroundColor #fce7f3
skinparam classAttributeIconSize 0

class Animal {
  + String name
  + void eat()
}

class Dog {
  + void bark()
  - -
  //inherits: name, eat()//
}

Animal <|- - Dog : extends
@enduml

PlantUML version 1.2020.02(Sun Mar 01 13:22:07 AST 2020)
(GPL source distribution)
Java Runtime: OpenJDK Runtime Environment
JVM: OpenJDK 64-Bit Server VM
Java Version: 21.0.10+7-Ubuntu-124.04
Operating System: Linux
Default Encoding: UTF-8
Language: en
Country: US
--></g></svg>