<?xml version="1.0" encoding="UTF-8" standalone="no"?><svg xmlns="http://www.w3.org/2000/svg" xmlns:xlink="http://www.w3.org/1999/xlink" contentScriptType="application/ecmascript" contentStyleType="text/css" height="262px" preserveAspectRatio="none" style="width:312px;height:262px;" version="1.1" viewBox="0 0 312 262" width="312px" zoomAndPan="magnify"><defs/><g><!--MD5=[cf9bc73d4b319b8f5d50999aecc13d13]
class Parent--><rect fill="#FDF2F8" height="99.118" id="Parent" style="stroke: #EC4899; stroke-width: 1.5;" width="140" x="83" y="8"/><rect fill="#FCE7F3" height="30" style="stroke: #EC4899; stroke-width: 1.5;" width="140" x="83" y="8"/><ellipse cx="97" cy="23" fill="#ADD1B2" rx="10" ry="10" style="stroke: #EC4899; stroke-width: 1.0;"/><path d="M99.3906,27.7031 Q98.9063,27.9531 98.375,28.0781 Q97.8594,28.2031 97.2813,28.2031 Q95.2188,28.2031 94.125,26.8438 Q93.0469,25.4844 93.0469,22.9063 Q93.0469,20.3281 94.125,18.9688 Q95.2188,17.6094 97.2813,17.6094 Q97.8594,17.6094 98.3906,17.7344 Q98.9219,17.8594 99.3906,18.0938 L99.3906,20.3438 Q98.875,19.8594 98.375,19.6406 Q97.8906,19.4219 97.375,19.4219 Q96.2656,19.4219 95.7031,20.2969 Q95.1406,21.1719 95.1406,22.9063 Q95.1406,24.625 95.7031,25.5156 Q96.2656,26.3906 97.375,26.3906 Q97.8906,26.3906 98.375,26.1719 Q98.875,25.9375 99.3906,25.4688 L99.3906,27.7031 Z "/><text fill="#831843" font-family="Segoe UI" font-size="14" lengthAdjust="spacingAndGlyphs" textLength="110" x="110" y="28.432">Father &amp; Mother</text><line style="stroke: #EC4899; stroke-width: 1.5;" x1="84" x2="222" y1="38" y2="38"/><text fill="#374151" font-family="Segoe UI" font-size="13" lengthAdjust="spacingAndGlyphs" textLength="41" x="89" y="55.897">talents</text><text fill="#374151" font-family="Segoe UI" font-size="13" lengthAdjust="spacingAndGlyphs" textLength="70" x="89" y="73.603">appearance</text><text fill="#374151" font-family="Segoe UI" font-size="13" lengthAdjust="spacingAndGlyphs" textLength="67" x="89" y="91.309">personality</text><line style="stroke: #EC4899; stroke-width: 1.5;" x1="84" x2="222" y1="99.118" y2="99.118"/><!--MD5=[e4cfc263935e8a1ed98a6ff3a1cdabdd]
class Son--><rect fill="#FDF2F8" height="63.706" id="Son" style="stroke: #EC4899; stroke-width: 1.5;" width="130" x="6" y="188"/><rect fill="#FCE7F3" height="30" style="stroke: #EC4899; stroke-width: 1.5;" width="130" x="6" y="188"/><ellipse cx="54.5" cy="203" fill="#ADD1B2" rx="10" ry="10" style="stroke: #EC4899; stroke-width: 1.0;"/><path d="M56.8906,207.7031 Q56.4063,207.9531 55.875,208.0781 Q55.3594,208.2031 54.7813,208.2031 Q52.7188,208.2031 51.625,206.8438 Q50.5469,205.4844 50.5469,202.9063 Q50.5469,200.3281 51.625,198.9688 Q52.7188,197.6094 54.7813,197.6094 Q55.3594,197.6094 55.8906,197.7344 Q56.4219,197.8594 56.8906,198.0938 L56.8906,200.3438 Q56.375,199.8594 55.875,199.6406 Q55.3906,199.4219 54.875,199.4219 Q53.7656,199.4219 53.2031,200.2969 Q52.6406,201.1719 52.6406,202.9063 Q52.6406,204.625 53.2031,205.5156 Q53.7656,206.3906 54.875,206.3906 Q55.3906,206.3906 55.875,206.1719 Q56.375,205.9375 56.8906,205.4688 L56.8906,207.7031 Z "/><text fill="#831843" font-family="Segoe UI" font-size="14" lengthAdjust="spacingAndGlyphs" textLength="25" x="73.5" y="208.432">Son</text><line style="stroke: #EC4899; stroke-width: 1.5;" x1="7" x2="135" y1="218" y2="218"/><ellipse cx="17" cy="229" fill="none" rx="3" ry="3" style="stroke: #038048; stroke-width: 1.0;"/><text fill="#374151" font-family="Segoe UI" font-size="13" lengthAdjust="spacingAndGlyphs" textLength="105" x="25" y="235.897">own unique traits</text><line style="stroke: #EC4899; stroke-width: 1.5;" x1="7" x2="135" y1="243.706" y2="243.706"/><!--MD5=[6d5a8d9fff403e474150262fddf52088]
class Daughter--><rect fill="#FDF2F8" height="63.706" id="Daughter" style="stroke: #EC4899; stroke-width: 1.5;" width="130" x="171" y="188"/><rect fill="#FCE7F3" height="30" style="stroke: #EC4899; stroke-width: 1.5;" width="130" x="171" y="188"/><ellipse cx="201.2" cy="203" fill="#ADD1B2" rx="10" ry="10" style="stroke: #EC4899; stroke-width: 1.0;"/><path d="M203.5906,207.7031 Q203.1063,207.9531 202.575,208.0781 Q202.0594,208.2031 201.4813,208.2031 Q199.4188,208.2031 198.325,206.8438 Q197.2469,205.4844 197.2469,202.9063 Q197.2469,200.3281 198.325,198.9688 Q199.4188,197.6094 201.4813,197.6094 Q202.0594,197.6094 202.5906,197.7344 Q203.1219,197.8594 203.5906,198.0938 L203.5906,200.3438 Q203.075,199.8594 202.575,199.6406 Q202.0906,199.4219 201.575,199.4219 Q200.4656,199.4219 199.9031,200.2969 Q199.3406,201.1719 199.3406,202.9063 Q199.3406,204.625 199.9031,205.5156 Q200.4656,206.3906 201.575,206.3906 Q202.0906,206.3906 202.575,206.1719 Q203.075,205.9375 203.5906,205.4688 L203.5906,207.7031 Z "/><text fill="#831843" font-family="Segoe UI" font-size="14" lengthAdjust="spacingAndGlyphs" textLength="64" x="217.8" y="208.432">Daughter</text><line style="stroke: #EC4899; stroke-width: 1.5;" x1="172" x2="300" y1="218" y2="218"/><ellipse cx="182" cy="229" fill="none" rx="3" ry="3" style="stroke: #038048; stroke-width: 1.0;"/><text fill="#374151" font-family="Segoe UI" font-size="13" lengthAdjust="spacingAndGlyphs" textLength="105" x="190" y="235.897">own unique traits</text><line style="stroke: #EC4899; stroke-width: 1.5;" x1="172" x2="300" y1="243.706" y2="243.706"/><!--MD5=[fcd85e2cdab672f9ce4f120a496d0e06]
reverse link Parent to Son--><path d="M119.07,124.91 C107.94,146.69 96.1,169.87 86.95,187.78 " fill="none" id="Parent&lt;-Son" style="stroke: #BE185D; stroke-width: 2.0;"/><polygon fill="none" points="112.84,121.72,128.17,107.09,125.31,128.09,112.84,121.72" style="stroke: #BE185D; stroke-width: 2.0;"/><text fill="#000000" font-family="Segoe UI" font-size="14" lengthAdjust="spacingAndGlyphs" textLength="52" x="113" y="152.9659">inherits</text><!--MD5=[463bc8a0d46f388aafc77b1e4db7ddfa]
reverse link Parent to Daughter--><path d="M187.34,124.91 C198.61,146.69 210.59,169.87 219.85,187.78 " fill="none" id="Parent&lt;-Daughter" style="stroke: #BE185D; stroke-width: 2.0;"/><polygon fill="none" points="181.1,128.07,178.13,107.09,193.53,121.64,181.1,128.07" style="stroke: #BE185D; stroke-width: 2.0;"/><text fill="#000000" font-family="Segoe UI" font-size="14" lengthAdjust="spacingAndGlyphs" textLength="52" x="205" y="152.9659">inherits</text><!--MD5=[5cb13ab570e38eb4a3787a975ed8f0fe]
@startuml diagram_family
skinparam backgroundColor transparent
skinparam shadowing false
skinparam defaultFontName "Segoe UI"
skinparam defaultFontSize 14
skinparam classBackgroundColor #fdf2f8
skinparam classBorderColor #ec4899
skinparam classFontColor #831843
skinparam classAttributeFontColor #374151
skinparam classAttributeFontSize 13
skinparam arrowColor #be185d
skinparam arrowThickness 2
skinparam classHeaderBackgroundColor #fce7f3

class "Father & Mother" as Parent {
  talents
  appearance
  personality
}

class "Son" {
  + own unique traits
}

class "Daughter" {
  + own unique traits
}

Parent <|- - Son  : inherits
Parent <|- - Daughter : inherits
@enduml

PlantUML version 1.2020.02(Sun Mar 01 13:22:07 AST 2020)
(GPL source distribution)
Java Runtime: OpenJDK Runtime Environment
JVM: OpenJDK 64-Bit Server VM
Java Version: 21.0.10+7-Ubuntu-124.04
Operating System: Linux
Default Encoding: UTF-8
Language: en
Country: US
--></g></svg>