<?xml version="1.0" encoding="UTF-8" standalone="no"?><svg xmlns="http://www.w3.org/2000/svg" xmlns:xlink="http://www.w3.org/1999/xlink" contentScriptType="application/ecmascript" contentStyleType="text/css" height="334px" preserveAspectRatio="none" style="width:272px;height:334px;" version="1.1" viewBox="0 0 272 334" width="272px" zoomAndPan="magnify"><defs/><g><!--MD5=[c3668063ac2659be48990fdea3aec9d1]
class PW--><rect fill="#FDF4FF" height="134.9599" id="PW" style="stroke: #8B5CF6; stroke-width: 1.5;" width="219" x="24" y="8"/><rect fill="#EDE9FE" height="48.1358" style="stroke: #8B5CF6; stroke-width: 1.5;" width="219" x="24" y="8"/><ellipse cx="56" cy="32.0679" fill="#ADD1B2" rx="10" ry="10" style="stroke: #8B5CF6; stroke-width: 1.0;"/><path d="M58.3906,36.771 Q57.9063,37.021 57.375,37.146 Q56.8594,37.271 56.2813,37.271 Q54.2188,37.271 53.125,35.9117 Q52.0469,34.5523 52.0469,31.9742 Q52.0469,29.396 53.125,28.0367 Q54.2188,26.6773 56.2813,26.6773 Q56.8594,26.6773 57.3906,26.8023 Q57.9219,26.9273 58.3906,27.1617 L58.3906,29.4117 Q57.875,28.9273 57.375,28.7085 Q56.8906,28.4898 56.375,28.4898 Q55.2656,28.4898 54.7031,29.3648 Q54.1406,30.2398 54.1406,31.9742 Q54.1406,33.6929 54.7031,34.5835 Q55.2656,35.4585 56.375,35.4585 Q56.8906,35.4585 57.375,35.2398 Q57.875,35.0054 58.3906,34.5367 L58.3906,36.771 Z "/><text fill="#000000" font-family="Segoe UI" font-size="14" font-style="italic" lengthAdjust="spacingAndGlyphs" textLength="153" x="71" y="27.9659">«Java Standard Library»</text><text fill="#5B21B6" font-family="Segoe UI" font-size="14" lengthAdjust="spacingAndGlyphs" textLength="74" x="110.5" y="47.0339">PrintWriter</text><line style="stroke: #8B5CF6; stroke-width: 1.5;" x1="25" x2="242" y1="56.1358" y2="56.1358"/><line style="stroke: #8B5CF6; stroke-width: 1.5;" x1="25" x2="242" y1="64.1358" y2="64.1358"/><text fill="#374151" font-family="Segoe UI" font-size="13" lengthAdjust="spacingAndGlyphs" textLength="120" x="30" y="82.0328">+void println(String)</text><text fill="#374151" font-family="Segoe UI" font-size="13" lengthAdjust="spacingAndGlyphs" textLength="207" x="30" y="99.7389">+PrintWriter printf(String, Object...)</text><text fill="#374151" font-family="Segoe UI" font-size="13" lengthAdjust="spacingAndGlyphs" textLength="73" x="30" y="117.4449">+void print()</text><text fill="#374151" font-family="Segoe UI" font-size="13" lengthAdjust="spacingAndGlyphs" textLength="73" x="30" y="135.1509">+void flush()</text><!--MD5=[4635919166259e103bff26d254529e69]
class EPW--><rect fill="#FDF4FF" height="99.5479" id="EPW" style="stroke: #8B5CF6; stroke-width: 1.5;" width="255" x="6" y="224"/><rect fill="#EDE9FE" height="48.1358" style="stroke: #8B5CF6; stroke-width: 1.5;" width="255" x="6" y="224"/><ellipse cx="59" cy="248.0679" fill="#ADD1B2" rx="10" ry="10" style="stroke: #8B5CF6; stroke-width: 1.0;"/><path d="M61.3906,252.771 Q60.9063,253.021 60.375,253.146 Q59.8594,253.271 59.2813,253.271 Q57.2188,253.271 56.125,251.9117 Q55.0469,250.5523 55.0469,247.9742 Q55.0469,245.396 56.125,244.0367 Q57.2188,242.6773 59.2813,242.6773 Q59.8594,242.6773 60.3906,242.8023 Q60.9219,242.9273 61.3906,243.1617 L61.3906,245.4117 Q60.875,244.9273 60.375,244.7085 Q59.8906,244.4898 59.375,244.4898 Q58.2656,244.4898 57.7031,245.3648 Q57.1406,246.2398 57.1406,247.9742 Q57.1406,249.6929 57.7031,250.5835 Q58.2656,251.4585 59.375,251.4585 Q59.8906,251.4585 60.375,251.2398 Q60.875,251.0054 61.3906,250.5367 L61.3906,252.771 Z "/><text fill="#000000" font-family="Segoe UI" font-size="14" font-style="italic" lengthAdjust="spacingAndGlyphs" textLength="105" x="96" y="243.9659">«Our New Class»</text><text fill="#5B21B6" font-family="Segoe UI" font-size="14" lengthAdjust="spacingAndGlyphs" textLength="141" x="78" y="263.0339">EnhancedPrintWriter</text><line style="stroke: #8B5CF6; stroke-width: 1.5;" x1="7" x2="260" y1="272.1358" y2="272.1358"/><line style="stroke: #8B5CF6; stroke-width: 1.5;" x1="7" x2="260" y1="280.1358" y2="280.1358"/><text fill="#374151" font-family="Segoe UI" font-size="13" lengthAdjust="spacingAndGlyphs" textLength="195" x="12" y="298.0328">+void print2DArray(int[][], String)</text><text fill="#374151" font-family="Segoe UI" font-size="13" lengthAdjust="spacingAndGlyphs" textLength="243" x="12" y="315.7389">+void print2DArray(double[][], String, int)</text><!--MD5=[6aebd6d8e31ebcc7c3d8ee3a3816658a]
reverse link PW to EPW--><path d="M133.5,163.08 C133.5,183.93 133.5,205.49 133.5,223.94 " fill="none" id="PW&lt;-EPW" style="stroke: #7C3AED; stroke-width: 2.0;"/><polygon fill="none" points="126.5,163.03,133.5,143.03,140.5,163.03,126.5,163.03" style="stroke: #7C3AED; stroke-width: 2.0;"/><text fill="#000000" font-family="Segoe UI" font-size="14" lengthAdjust="spacingAndGlyphs" textLength="53" x="134.5" y="188.9659">extends</text><!--MD5=[5131b7c5a87083535e107d93247942f6]
@startuml diagram_enhanced_pw
skinparam backgroundColor transparent
skinparam shadowing false
skinparam defaultFontName "Segoe UI"
skinparam defaultFontSize 14
skinparam classBackgroundColor #fdf4ff
skinparam classBorderColor #8b5cf6
skinparam classFontColor #5b21b6
skinparam classAttributeFontColor #374151
skinparam classAttributeFontSize 13
skinparam arrowColor #7c3aed
skinparam arrowThickness 2
skinparam classHeaderBackgroundColor #ede9fe
skinparam classAttributeIconSize 0

class "PrintWriter" as PW <<Java Standard Library>> {
  + void println(String)
  + PrintWriter printf(String, Object...)
  + void print()
  + void flush()
}

class "EnhancedPrintWriter" as EPW <<Our New Class>> {
  + void print2DArray(int[][], String)
  + void print2DArray(double[][], String, int)
}

PW <|- - EPW : extends
@enduml

PlantUML version 1.2020.02(Sun Mar 01 13:22:07 AST 2020)
(GPL source distribution)
Java Runtime: OpenJDK Runtime Environment
JVM: OpenJDK 64-Bit Server VM
Java Version: 21.0.10+7-Ubuntu-124.04
Operating System: Linux
Default Encoding: UTF-8
Language: en
Country: US
--></g></svg>